<svg width="27" height="26" viewBox="0 0 27 26" fill="none" xmlns="http://www.w3.org/2000/svg">
<path d="M5.98987 11.938L5.75796 16.0337" stroke="black" stroke-dasharray="0.5 0.5"/>
<path d="M9 6.72949L17.545 11.9598" stroke="black" stroke-dasharray="0.5 0.5"/>
<path d="M9.36682 20.4814L17.1781 14.208" stroke="black" stroke-dasharray="0.5 0.5"/>
<path d="M1 22.1895V20C1 18.3431 2.34315 17 4 17H7.55439C9.21124 17 10.5544 18.3431 10.5544 20V22.1895C10.5544 23.8463 9.21124 25.1895 7.55439 25.1895H4C2.34315 25.1895 1 23.8463 1 22.1895Z" fill="white" stroke="black"/>
<rect x="1" y="17" width="9.55439" height="2.72982" rx="1.36491" fill="black"/>
<path d="M1 9.82924V4C1 2.34315 2.34315 1 4 1H7.55439C9.21124 1 10.5544 2.34314 10.5544 4V9.82924C10.5544 11.4861 9.21124 12.8292 7.55439 12.8292H4C2.34315 12.8292 1 11.4861 1 9.82924Z" fill="white" stroke="black"/>
<rect x="1" y="1" width="9.55439" height="2.72982" rx="1.36491" fill="black"/>
<path d="M16 15.7392V9C16 7.34315 17.3431 6 19 6H22.5544C24.2112 6 25.5544 7.34314 25.5544 9V15.7392C25.5544 17.396 24.2112 18.7392 22.5544 18.7392H19C17.3431 18.7392 16 17.396 16 15.7392Z" fill="white" stroke="black"/>
<rect x="16" y="6" width="10" height="4" rx="2" fill="black"/>
</svg>
