<svg width="365" height="123" viewBox="0 0 365 123" fill="none" xmlns="http://www.w3.org/2000/svg">
<path d="M19 5.71045C19 5.15817 19.4477 4.71045 20 4.71045H343C343.552 4.71045 344 5.15816 344 5.71045V29.9939C344 30.5461 343.552 30.9939 343 30.9939H20C19.4477 30.9939 19 30.5461 19 29.9939V5.71045Z" fill="#F4F0CD"/>
<rect x="18" y="5" width="326" height="117" stroke="black" stroke-width="2"/>
<line x1="17" y1="32.7041" x2="345" y2="32.7041" stroke="black" stroke-width="2"/>
<line x1="17" y1="91.085" x2="345" y2="91.0849" stroke="black" stroke-width="2"/>
<line x1="17" y1="61.2495" x2="345" y2="61.2495" stroke="black" stroke-width="2"/>
<line x1="126" y1="5" x2="126" y2="122" stroke="black" stroke-width="2"/>
<path d="M235 5L235 122" stroke="black" stroke-width="2"/>
<path d="M12 4.625V1.54167H13V1H13.5042V0H16.5132V1H19.5221V0H22.5311V1H25.54V0H28.5489V1H31.5579V0H34.5668V1H37.5758V0H40.5847V1H43.5937V0H46.6026V1H49.6115V0H52.6205V1H55.6294V0H58.6384V1H61.6473V0H64.6562V1H67.6652V0H70.6741V1H73.6831V0H76.692V1H79.701V0H82.7099V1H85.7188V0H88.7278V1H91.7367V0H94.7457V1H97.7546V0H100.764V1H103.772V0H106.781V1H109.79V0H112.799V1H115.808V0H118.817V1H121.826V0H124.835V1H127.844V0H130.853V1H133.862V0H136.871V1H139.88V0H142.888V1H145.897V0H148.906V1H151.915V0H154.924V1H157.933V0H160.942V1H163.951V0H166.96V1H169.969V0H172.978V1H175.987V0H178.996V1H182.005V0H185.013V1H188.022V0H191.031V1H194.04V0H197.049V1H200.058V0H203.067V1H206.076V0H209.085V1H212.094V0H215.103V1H218.112V0H221.121V1H224.13V0H227.138V1H230.147V0H233.156V1H236.165V0H239.174V1H242.183V0H245.192V1H248.201V0H251.21V1H254.219V0H257.228V1H260.237V0H263.246V1H266.254V0H269.263V1H272.272V0H275.281V1H278.29V0H281.299V1H284.308V0H287.317V1H290.326V0H293.335V1H296.344V0H299.353V1H302.362V0H305.371V1H308.379V0H311.388V1H314.397V0H317.406V1H320.415V0H323.424V1H326.433V0H329.442V1H332.451V0H335.46V1H338.469V0H341.478V1H344.487V0H347.496V1H348V1.54167H349V4.625H348V7.70833H349V10.7917H348V13.875H349V16.9583H348V20.0417H349V23.125H348V26.2083H349V29.2917H348V32.375H349V35.4583H348V36H347.496V37H344.487V36H341.478V37H338.469V36H335.46V37H332.451V36H329.442V37H326.433V36H323.424V37H320.415V36H317.406V37H314.397V36H311.388V37H308.379V36H305.371V37H302.362V36H299.353V37H296.344V36H293.335V37H290.326V36H287.317V37H284.308V36H281.299V37H278.29V36H275.281V37H272.272V36H269.263V37H266.254V36H263.245V37H260.236V36H257.228V37H254.219V36H251.21V37H248.201V36H245.192V37H242.183V36H239.174V37H236.165V36H233.156V37H230.147V36H227.138V37H224.129V36H221.12V37H218.111V36H215.103V37H212.094V36H209.085V37H206.076V36H203.067V37H200.058V36H197.049V37H194.04V36H191.031V37H188.022V36H185.013V37H182.004V36H178.995V37H175.987V36H172.978V37H169.969V36H166.96V37H163.951V36H160.942V37H157.933V36H154.924V37H151.915V36H148.906V37H145.897V36H142.888V37H139.879V36H136.87V37H133.862V36H130.853V37H127.844V36H124.835V37H121.826V36H118.817V37H115.808V36H112.799V37H109.79V36H106.781V37H103.772V36H100.763V37H97.7544V36H94.7455V37H91.7366V36H88.7276V37H85.7187V36H82.7098V37H79.7009V36H76.6919V37H73.683V36H70.6741V37H67.6652V36H64.6562V37H61.6473V36H58.6384V37H55.6295V36H52.6205V37H49.6116V36H46.6027V37H43.5937V36H40.5848V37H37.5759V36H34.567V37H31.558V36H28.5491V37H25.5402V36H22.5312V37H19.5223V36H16.5134V37H13.5045V36H13V35.4583H12V32.375H13V29.2917H12V26.2083H13V23.125H12V20.0417H13V16.9583H12V13.875H13V10.7917H12V7.70833H13V4.625H12Z" stroke="#5AA6FF" stroke-width="2" stroke-dasharray="3 3"/>
<path d="M71.5969 13.956H73.2049V19.644H71.5969V13.956ZM65.6809 20.088H73.2049V23.088H67.2769V24.432H65.7049V21.948H71.6209V21.312H65.6809V20.088ZM65.7049 23.76H73.5049V24.996H65.7049V23.76ZM64.4209 14.628H70.4089V15.852H64.4209V14.628ZM64.2889 19.452L64.1329 18.192C66.0769 18.192 68.6689 18.156 70.8169 17.892L70.9009 19.032C68.7049 19.392 66.2089 19.44 64.2889 19.452ZM65.2969 15.18H66.8209V18.816H65.2969V15.18ZM67.9849 15.18H69.5329V18.816H67.9849V15.18ZM76.156 19.08H83.968V20.352H76.156V19.08ZM74.992 22.428H85.048V23.736H74.992V22.428ZM76.156 14.868H83.884V16.164H77.74V19.608H76.156V14.868Z" fill="black"/>
<path d="M175.597 13.956H177.205V19.644H175.597V13.956ZM169.681 20.088H177.205V23.088H171.277V24.432H169.705V21.948H175.621V21.312H169.681V20.088ZM169.705 23.76H177.505V24.996H169.705V23.76ZM168.421 14.628H174.409V15.852H168.421V14.628ZM168.289 19.452L168.133 18.192C170.077 18.192 172.669 18.156 174.817 17.892L174.901 19.032C172.705 19.392 170.209 19.44 168.289 19.452ZM169.297 15.18H170.821V18.816H169.297V15.18ZM171.985 15.18H173.533V18.816H171.985V15.18ZM180.156 19.08H187.968V20.352H180.156V19.08ZM178.992 22.428H189.048V23.736H178.992V22.428ZM180.156 14.868H187.884V16.164H181.74V19.608H180.156V14.868Z" fill="black"/>
<path d="M287.597 13.956H289.205V19.644H287.597V13.956ZM281.681 20.088H289.205V23.088H283.277V24.432H281.705V21.948H287.621V21.312H281.681V20.088ZM281.705 23.76H289.505V24.996H281.705V23.76ZM280.421 14.628H286.409V15.852H280.421V14.628ZM280.289 19.452L280.133 18.192C282.077 18.192 284.669 18.156 286.817 17.892L286.901 19.032C284.705 19.392 282.209 19.44 280.289 19.452ZM281.297 15.18H282.821V18.816H281.297V15.18ZM283.985 15.18H285.533V18.816H283.985V15.18ZM292.156 19.08H299.968V20.352H292.156V19.08ZM290.992 22.428H301.048V23.736H290.992V22.428ZM292.156 14.868H299.884V16.164H293.74V19.608H292.156V14.868Z" fill="black"/>
</svg>
