<svg width="365" height="123" viewBox="0 0 365 123" fill="none" xmlns="http://www.w3.org/2000/svg">
<path d="M19 5.71045C19 5.15817 19.4477 4.71045 20 4.71045H343C343.552 4.71045 344 5.15816 344 5.71045V29.9939C344 30.5461 343.552 30.9939 343 30.9939H20C19.4477 30.9939 19 30.5461 19 29.9939V5.71045Z" fill="#F4F0CD"/>
<rect x="18" y="5" width="326" height="117" stroke="black" stroke-width="2"/>
<line x1="17" y1="32.7041" x2="345" y2="32.7041" stroke="black" stroke-width="2"/>
<line x1="17" y1="91.085" x2="345" y2="91.0849" stroke="black" stroke-width="2"/>
<line x1="17" y1="61.2495" x2="345" y2="61.2495" stroke="black" stroke-width="2"/>
<line x1="126" y1="5" x2="126" y2="122" stroke="black" stroke-width="2"/>
<path d="M235 5L235 122" stroke="black" stroke-width="2"/>
<path d="M13 1H348V36H13V1Z" stroke="#5AA6FF" stroke-width="2"/>
<path d="M65.8814 17.4545V18.6477H62.0121V17.4545H65.8814ZM62.9794 24V16.8366C62.9794 16.3963 63.0703 16.0298 63.2521 15.7372C63.4368 15.4446 63.6839 15.2259 63.9936 15.081C64.3033 14.9361 64.647 14.8636 65.0249 14.8636C65.2919 14.8636 65.5291 14.8849 65.7365 14.9276C65.9439 14.9702 66.0973 15.0085 66.1967 15.0426L65.8899 16.2358C65.8246 16.2159 65.7422 16.196 65.6428 16.1761C65.5433 16.1534 65.4325 16.142 65.3104 16.142C65.0234 16.142 64.8203 16.2116 64.701 16.3509C64.5845 16.4872 64.5263 16.6832 64.5263 16.9389V24H62.9794ZM67.0895 24V17.4545H68.6321V24H67.0895ZM67.8651 16.5256C67.6207 16.5256 67.4105 16.4446 67.2344 16.2827C67.0582 16.1179 66.9702 15.9205 66.9702 15.6903C66.9702 15.4574 67.0582 15.2599 67.2344 15.098C67.4105 14.9332 67.6207 14.8509 67.8651 14.8509C68.1122 14.8509 68.3224 14.9332 68.4957 15.098C68.6719 15.2599 68.7599 15.4574 68.7599 15.6903C68.7599 15.9205 68.6719 16.1179 68.4957 16.2827C68.3224 16.4446 68.1122 16.5256 67.8651 16.5256ZM73.1161 24.1278C72.4599 24.1278 71.8931 23.9915 71.4158 23.7188C70.9414 23.4432 70.5763 23.054 70.3207 22.5511C70.065 22.0455 69.9371 21.4503 69.9371 20.7656C69.9371 20.0923 70.065 19.5014 70.3207 18.9929C70.5792 18.4815 70.94 18.0838 71.4031 17.7997C71.8661 17.5128 72.4102 17.3693 73.0352 17.3693C73.4386 17.3693 73.8192 17.4347 74.1772 17.5653C74.538 17.6932 74.8562 17.892 75.1317 18.1619C75.4102 18.4318 75.6289 18.7756 75.788 19.1932C75.9471 19.608 76.0266 20.1023 76.0266 20.6761V21.1491H70.6616V20.1094H74.5479C74.5451 19.8139 74.4812 19.5511 74.3562 19.321C74.2312 19.0881 74.0565 18.9048 73.832 18.7713C73.6104 18.6378 73.3519 18.571 73.0565 18.571C72.7411 18.571 72.4641 18.6477 72.2255 18.8011C71.9869 18.9517 71.8008 19.1506 71.6673 19.3977C71.5366 19.642 71.4698 19.9105 71.467 20.2031V21.1108C71.467 21.4915 71.5366 21.8182 71.6758 22.0909C71.815 22.3608 72.0096 22.5682 72.2596 22.7131C72.5096 22.8551 72.8022 22.9261 73.1374 22.9261C73.3619 22.9261 73.565 22.8949 73.7468 22.8324C73.9286 22.767 74.0863 22.6719 74.2198 22.5469C74.3533 22.4219 74.4542 22.267 74.5224 22.0824L75.9627 22.2443C75.8718 22.625 75.6985 22.9574 75.4428 23.2415C75.19 23.5227 74.8661 23.7415 74.4712 23.8977C74.0763 24.0511 73.6246 24.1278 73.1161 24.1278ZM78.8743 15.2727V24H77.3317V15.2727H78.8743ZM82.8896 24.1151C82.3754 24.1151 81.9151 23.983 81.5089 23.7188C81.1026 23.4545 80.7816 23.071 80.5458 22.5682C80.31 22.0653 80.1921 21.4545 80.1921 20.7358C80.1921 20.0085 80.3114 19.3949 80.5501 18.8949C80.7915 18.392 81.1168 18.0128 81.5259 17.7571C81.935 17.4986 82.391 17.3693 82.8938 17.3693C83.2773 17.3693 83.5927 17.4347 83.8398 17.5653C84.087 17.6932 84.283 17.848 84.4279 18.0298C84.5728 18.2088 84.685 18.3778 84.7646 18.5369H84.8285V15.2727H86.3754V24H84.8583V22.9688H84.7646C84.685 23.1278 84.57 23.2969 84.4194 23.4759C84.2688 23.652 84.07 23.8026 83.8228 23.9276C83.5756 24.0526 83.2646 24.1151 82.8896 24.1151ZM83.32 22.8494C83.6467 22.8494 83.9251 22.7614 84.1552 22.5852C84.3853 22.4062 84.56 22.1577 84.6793 21.8395C84.7987 21.5213 84.8583 21.1506 84.8583 20.7273C84.8583 20.304 84.7987 19.9361 84.6793 19.6236C84.5629 19.3111 84.3896 19.0682 84.1594 18.8949C83.9322 18.7216 83.6523 18.6349 83.32 18.6349C82.9762 18.6349 82.6893 18.7244 82.4592 18.9034C82.229 19.0824 82.0558 19.3295 81.9393 19.6449C81.8228 19.9602 81.7646 20.321 81.7646 20.7273C81.7646 21.1364 81.8228 21.5014 81.9393 21.8224C82.0586 22.1406 82.2333 22.392 82.4634 22.5767C82.6964 22.7585 82.9819 22.8494 83.32 22.8494Z" fill="black"/>
<path d="M169.881 17.4545V18.6477H166.012V17.4545H169.881ZM166.979 24V16.8366C166.979 16.3963 167.07 16.0298 167.252 15.7372C167.437 15.4446 167.684 15.2259 167.994 15.081C168.303 14.9361 168.647 14.8636 169.025 14.8636C169.292 14.8636 169.529 14.8849 169.737 14.9276C169.944 14.9702 170.097 15.0085 170.197 15.0426L169.89 16.2358C169.825 16.2159 169.742 16.196 169.643 16.1761C169.543 16.1534 169.433 16.142 169.31 16.142C169.023 16.142 168.82 16.2116 168.701 16.3509C168.585 16.4872 168.526 16.6832 168.526 16.9389V24H166.979ZM171.089 24V17.4545H172.632V24H171.089ZM171.865 16.5256C171.621 16.5256 171.411 16.4446 171.234 16.2827C171.058 16.1179 170.97 15.9205 170.97 15.6903C170.97 15.4574 171.058 15.2599 171.234 15.098C171.411 14.9332 171.621 14.8509 171.865 14.8509C172.112 14.8509 172.322 14.9332 172.496 15.098C172.672 15.2599 172.76 15.4574 172.76 15.6903C172.76 15.9205 172.672 16.1179 172.496 16.2827C172.322 16.4446 172.112 16.5256 171.865 16.5256ZM177.116 24.1278C176.46 24.1278 175.893 23.9915 175.416 23.7188C174.941 23.4432 174.576 23.054 174.321 22.5511C174.065 22.0455 173.937 21.4503 173.937 20.7656C173.937 20.0923 174.065 19.5014 174.321 18.9929C174.579 18.4815 174.94 18.0838 175.403 17.7997C175.866 17.5128 176.41 17.3693 177.035 17.3693C177.439 17.3693 177.819 17.4347 178.177 17.5653C178.538 17.6932 178.856 17.892 179.132 18.1619C179.41 18.4318 179.629 18.7756 179.788 19.1932C179.947 19.608 180.027 20.1023 180.027 20.6761V21.1491H174.662V20.1094H178.548C178.545 19.8139 178.481 19.5511 178.356 19.321C178.231 19.0881 178.056 18.9048 177.832 18.7713C177.61 18.6378 177.352 18.571 177.056 18.571C176.741 18.571 176.464 18.6477 176.225 18.8011C175.987 18.9517 175.801 19.1506 175.667 19.3977C175.537 19.642 175.47 19.9105 175.467 20.2031V21.1108C175.467 21.4915 175.537 21.8182 175.676 22.0909C175.815 22.3608 176.01 22.5682 176.26 22.7131C176.51 22.8551 176.802 22.9261 177.137 22.9261C177.362 22.9261 177.565 22.8949 177.747 22.8324C177.929 22.767 178.086 22.6719 178.22 22.5469C178.353 22.4219 178.454 22.267 178.522 22.0824L179.963 22.2443C179.872 22.625 179.699 22.9574 179.443 23.2415C179.19 23.5227 178.866 23.7415 178.471 23.8977C178.076 24.0511 177.625 24.1278 177.116 24.1278ZM182.874 15.2727V24H181.332V15.2727H182.874ZM186.89 24.1151C186.375 24.1151 185.915 23.983 185.509 23.7188C185.103 23.4545 184.782 23.071 184.546 22.5682C184.31 22.0653 184.192 21.4545 184.192 20.7358C184.192 20.0085 184.311 19.3949 184.55 18.8949C184.792 18.392 185.117 18.0128 185.526 17.7571C185.935 17.4986 186.391 17.3693 186.894 17.3693C187.277 17.3693 187.593 17.4347 187.84 17.5653C188.087 17.6932 188.283 17.848 188.428 18.0298C188.573 18.2088 188.685 18.3778 188.765 18.5369H188.828V15.2727H190.375V24H188.858V22.9688H188.765C188.685 23.1278 188.57 23.2969 188.419 23.4759C188.269 23.652 188.07 23.8026 187.823 23.9276C187.576 24.0526 187.265 24.1151 186.89 24.1151ZM187.32 22.8494C187.647 22.8494 187.925 22.7614 188.155 22.5852C188.385 22.4062 188.56 22.1577 188.679 21.8395C188.799 21.5213 188.858 21.1506 188.858 20.7273C188.858 20.304 188.799 19.9361 188.679 19.6236C188.563 19.3111 188.39 19.0682 188.159 18.8949C187.932 18.7216 187.652 18.6349 187.32 18.6349C186.976 18.6349 186.689 18.7244 186.459 18.9034C186.229 19.0824 186.056 19.3295 185.939 19.6449C185.823 19.9602 185.765 20.321 185.765 20.7273C185.765 21.1364 185.823 21.5014 185.939 21.8224C186.059 22.1406 186.233 22.392 186.463 22.5767C186.696 22.7585 186.982 22.8494 187.32 22.8494Z" fill="black"/>
<path d="M281.881 17.4545V18.6477H278.012V17.4545H281.881ZM278.979 24V16.8366C278.979 16.3963 279.07 16.0298 279.252 15.7372C279.437 15.4446 279.684 15.2259 279.994 15.081C280.303 14.9361 280.647 14.8636 281.025 14.8636C281.292 14.8636 281.529 14.8849 281.737 14.9276C281.944 14.9702 282.097 15.0085 282.197 15.0426L281.89 16.2358C281.825 16.2159 281.742 16.196 281.643 16.1761C281.543 16.1534 281.433 16.142 281.31 16.142C281.023 16.142 280.82 16.2116 280.701 16.3509C280.585 16.4872 280.526 16.6832 280.526 16.9389V24H278.979ZM283.089 24V17.4545H284.632V24H283.089ZM283.865 16.5256C283.621 16.5256 283.411 16.4446 283.234 16.2827C283.058 16.1179 282.97 15.9205 282.97 15.6903C282.97 15.4574 283.058 15.2599 283.234 15.098C283.411 14.9332 283.621 14.8509 283.865 14.8509C284.112 14.8509 284.322 14.9332 284.496 15.098C284.672 15.2599 284.76 15.4574 284.76 15.6903C284.76 15.9205 284.672 16.1179 284.496 16.2827C284.322 16.4446 284.112 16.5256 283.865 16.5256ZM289.116 24.1278C288.46 24.1278 287.893 23.9915 287.416 23.7188C286.941 23.4432 286.576 23.054 286.321 22.5511C286.065 22.0455 285.937 21.4503 285.937 20.7656C285.937 20.0923 286.065 19.5014 286.321 18.9929C286.579 18.4815 286.94 18.0838 287.403 17.7997C287.866 17.5128 288.41 17.3693 289.035 17.3693C289.439 17.3693 289.819 17.4347 290.177 17.5653C290.538 17.6932 290.856 17.892 291.132 18.1619C291.41 18.4318 291.629 18.7756 291.788 19.1932C291.947 19.608 292.027 20.1023 292.027 20.6761V21.1491H286.662V20.1094H290.548C290.545 19.8139 290.481 19.5511 290.356 19.321C290.231 19.0881 290.056 18.9048 289.832 18.7713C289.61 18.6378 289.352 18.571 289.056 18.571C288.741 18.571 288.464 18.6477 288.225 18.8011C287.987 18.9517 287.801 19.1506 287.667 19.3977C287.537 19.642 287.47 19.9105 287.467 20.2031V21.1108C287.467 21.4915 287.537 21.8182 287.676 22.0909C287.815 22.3608 288.01 22.5682 288.26 22.7131C288.51 22.8551 288.802 22.9261 289.137 22.9261C289.362 22.9261 289.565 22.8949 289.747 22.8324C289.929 22.767 290.086 22.6719 290.22 22.5469C290.353 22.4219 290.454 22.267 290.522 22.0824L291.963 22.2443C291.872 22.625 291.699 22.9574 291.443 23.2415C291.19 23.5227 290.866 23.7415 290.471 23.8977C290.076 24.0511 289.625 24.1278 289.116 24.1278ZM294.874 15.2727V24H293.332V15.2727H294.874ZM298.89 24.1151C298.375 24.1151 297.915 23.983 297.509 23.7188C297.103 23.4545 296.782 23.071 296.546 22.5682C296.31 22.0653 296.192 21.4545 296.192 20.7358C296.192 20.0085 296.311 19.3949 296.55 18.8949C296.792 18.392 297.117 18.0128 297.526 17.7571C297.935 17.4986 298.391 17.3693 298.894 17.3693C299.277 17.3693 299.593 17.4347 299.84 17.5653C300.087 17.6932 300.283 17.848 300.428 18.0298C300.573 18.2088 300.685 18.3778 300.765 18.5369H300.828V15.2727H302.375V24H300.858V22.9688H300.765C300.685 23.1278 300.57 23.2969 300.419 23.4759C300.269 23.652 300.07 23.8026 299.823 23.9276C299.576 24.0526 299.265 24.1151 298.89 24.1151ZM299.32 22.8494C299.647 22.8494 299.925 22.7614 300.155 22.5852C300.385 22.4062 300.56 22.1577 300.679 21.8395C300.799 21.5213 300.858 21.1506 300.858 20.7273C300.858 20.304 300.799 19.9361 300.679 19.6236C300.563 19.3111 300.39 19.0682 300.159 18.8949C299.932 18.7216 299.652 18.6349 299.32 18.6349C298.976 18.6349 298.689 18.7244 298.459 18.9034C298.229 19.0824 298.056 19.3295 297.939 19.6449C297.823 19.9602 297.765 20.321 297.765 20.7273C297.765 21.1364 297.823 21.5014 297.939 21.8224C298.059 22.1406 298.233 22.392 298.463 22.5767C298.696 22.7585 298.982 22.8494 299.32 22.8494Z" fill="black"/>
</svg>
