<svg width="443" height="129" viewBox="0 0 443 129" fill="none" xmlns="http://www.w3.org/2000/svg">
<g filter="url(#filter0_d_304_2)">
<rect x="50" width="104" height="121" rx="10" fill="white"/>
<rect x="51" y="1" width="102" height="119" rx="9" stroke="black" stroke-width="2"/>
</g>
<g filter="url(#filter1_d_304_2)">
<rect x="288" width="104" height="121" rx="10" fill="white"/>
<rect x="289" y="1" width="102" height="119" rx="9" stroke="black" stroke-width="2"/>
</g>
<path d="M52 60H152V78H52V60Z" fill="#F4F0CD"/>
<path d="M291 60H390V78H291V60Z" fill="#F4F0CD"/>
<path d="M74.3553 21H71.3979V12.2727H74.415C75.2814 12.2727 76.0257 12.4474 76.6479 12.7969C77.2729 13.1435 77.753 13.642 78.0882 14.2926C78.4235 14.9432 78.5911 15.7216 78.5911 16.6278C78.5911 17.5369 78.4221 18.3182 78.084 18.9716C77.7488 19.625 77.2644 20.1264 76.6309 20.4759C76.0002 20.8253 75.2417 21 74.3553 21ZM72.9789 19.6321H74.2786C74.8865 19.6321 75.3936 19.5213 75.7999 19.2997C76.2061 19.0753 76.5115 18.7415 76.7161 18.2983C76.9206 17.8523 77.0229 17.2955 77.0229 16.6278C77.0229 15.9602 76.9206 15.4062 76.7161 14.9659C76.5115 14.5227 76.209 14.1918 75.8084 13.973C75.4107 13.7514 74.9164 13.6406 74.3255 13.6406H72.9789V19.6321ZM81.9086 21.1321C81.4938 21.1321 81.1202 21.0582 80.7878 20.9105C80.4583 20.7599 80.1969 20.5384 80.0037 20.2457C79.8134 19.9531 79.7182 19.5923 79.7182 19.1634C79.7182 18.794 79.7864 18.4886 79.9228 18.2472C80.0591 18.0057 80.2452 17.8125 80.481 17.6676C80.7168 17.5227 80.9824 17.4134 81.2779 17.3395C81.5762 17.2628 81.8844 17.2074 82.2026 17.1733C82.5861 17.1335 82.8972 17.098 83.1358 17.0668C83.3745 17.0327 83.5478 16.9815 83.6557 16.9134C83.7665 16.8423 83.8219 16.733 83.8219 16.5852V16.5597C83.8219 16.2386 83.7267 15.9901 83.5364 15.8139C83.3461 15.6378 83.0719 15.5497 82.714 15.5497C82.3361 15.5497 82.0364 15.6321 81.8148 15.7969C81.5961 15.9616 81.4483 16.1562 81.3716 16.3807L79.9313 16.1761C80.0449 15.7784 80.2324 15.446 80.4938 15.179C80.7551 14.9091 81.0748 14.7074 81.4526 14.5739C81.8304 14.4375 82.248 14.3693 82.7054 14.3693C83.0208 14.3693 83.3347 14.4062 83.6472 14.4801C83.9597 14.554 84.2452 14.6761 84.5037 14.8466C84.7623 15.0142 84.9696 15.2429 85.1259 15.5327C85.285 15.8224 85.3645 16.1847 85.3645 16.6193V21H83.8816V20.1009H83.8304C83.7367 20.2827 83.6046 20.4531 83.4341 20.6122C83.2665 20.7685 83.0549 20.8949 82.7992 20.9915C82.5463 21.0852 82.2495 21.1321 81.9086 21.1321ZM82.3091 19.9986C82.6188 19.9986 82.8873 19.9375 83.1145 19.8153C83.3418 19.6903 83.5165 19.5256 83.6387 19.321C83.7637 19.1165 83.8262 18.8935 83.8262 18.652V17.8807C83.7779 17.9205 83.6955 17.9574 83.579 17.9915C83.4654 18.0256 83.3375 18.0554 83.1955 18.081C83.0534 18.1065 82.9128 18.1293 82.7736 18.1491C82.6344 18.169 82.5137 18.1861 82.4114 18.2003C82.1813 18.2315 81.9753 18.2827 81.7935 18.3537C81.6117 18.4247 81.4682 18.5241 81.3631 18.652C81.258 18.777 81.2054 18.9389 81.2054 19.1378C81.2054 19.4219 81.3091 19.6364 81.5165 19.7812C81.7239 19.9261 81.9881 19.9986 82.3091 19.9986ZM90.1841 14.4545V15.6477H86.4213V14.4545H90.1841ZM87.3503 12.8864H88.8929V19.0312C88.8929 19.2386 88.9242 19.3977 88.9867 19.5085C89.052 19.6165 89.1373 19.6903 89.2424 19.7301C89.3475 19.7699 89.464 19.7898 89.5918 19.7898C89.6884 19.7898 89.7765 19.7827 89.856 19.7685C89.9384 19.7543 90.0009 19.7415 90.0435 19.7301L90.3034 20.9361C90.2211 20.9645 90.1032 20.9957 89.9498 21.0298C89.7992 21.0639 89.6145 21.0838 89.3958 21.0895C89.0094 21.1009 88.6614 21.0426 88.3517 20.9148C88.0421 20.7841 87.7963 20.5824 87.6145 20.3097C87.4355 20.0369 87.3475 19.696 87.3503 19.2869V12.8864ZM93.3578 21.1321C92.943 21.1321 92.5694 21.0582 92.237 20.9105C91.9075 20.7599 91.6461 20.5384 91.4529 20.2457C91.2626 19.9531 91.1674 19.5923 91.1674 19.1634C91.1674 18.794 91.2356 18.4886 91.372 18.2472C91.5083 18.0057 91.6944 17.8125 91.9302 17.6676C92.166 17.5227 92.4316 17.4134 92.7271 17.3395C93.0254 17.2628 93.3336 17.2074 93.6518 17.1733C94.0353 17.1335 94.3464 17.098 94.585 17.0668C94.8237 17.0327 94.997 16.9815 95.1049 16.9134C95.2157 16.8423 95.2711 16.733 95.2711 16.5852V16.5597C95.2711 16.2386 95.176 15.9901 94.9856 15.8139C94.7953 15.6378 94.5211 15.5497 94.1632 15.5497C93.7853 15.5497 93.4856 15.6321 93.264 15.7969C93.0453 15.9616 92.8975 16.1562 92.8208 16.3807L91.3805 16.1761C91.4941 15.7784 91.6816 15.446 91.943 15.179C92.2044 14.9091 92.524 14.7074 92.9018 14.5739C93.2797 14.4375 93.6973 14.3693 94.1547 14.3693C94.47 14.3693 94.7839 14.4062 95.0964 14.4801C95.4089 14.554 95.6944 14.6761 95.9529 14.8466C96.2115 15.0142 96.4189 15.2429 96.5751 15.5327C96.7342 15.8224 96.8137 16.1847 96.8137 16.6193V21H95.3308V20.1009H95.2797C95.1859 20.2827 95.0538 20.4531 94.8833 20.6122C94.7157 20.7685 94.5041 20.8949 94.2484 20.9915C93.9956 21.0852 93.6987 21.1321 93.3578 21.1321ZM93.7583 19.9986C94.068 19.9986 94.3365 19.9375 94.5637 19.8153C94.791 19.6903 94.9657 19.5256 95.0879 19.321C95.2129 19.1165 95.2754 18.8935 95.2754 18.652V17.8807C95.2271 17.9205 95.1447 17.9574 95.0282 17.9915C94.9146 18.0256 94.7868 18.0554 94.6447 18.081C94.5027 18.1065 94.362 18.1293 94.2228 18.1491C94.0836 18.169 93.9629 18.1861 93.8606 18.2003C93.6305 18.2315 93.4245 18.2827 93.2427 18.3537C93.0609 18.4247 92.9174 18.5241 92.8123 18.652C92.7072 18.777 92.6547 18.9389 92.6547 19.1378C92.6547 19.4219 92.7583 19.6364 92.9657 19.7812C93.1731 19.9261 93.4373 19.9986 93.7583 19.9986ZM98.4331 21V12.2727H99.9757V15.5369H100.04C100.119 15.3778 100.231 15.2088 100.376 15.0298C100.521 14.848 100.717 14.6932 100.964 14.5653C101.211 14.4347 101.527 14.3693 101.91 14.3693C102.416 14.3693 102.872 14.4986 103.278 14.7571C103.687 15.0128 104.011 15.392 104.25 15.8949C104.491 16.3949 104.612 17.0085 104.612 17.7358C104.612 18.4545 104.494 19.0653 104.258 19.5682C104.023 20.071 103.702 20.4545 103.295 20.7188C102.889 20.983 102.429 21.1151 101.915 21.1151C101.54 21.1151 101.229 21.0526 100.981 20.9276C100.734 20.8026 100.535 20.652 100.385 20.4759C100.237 20.2969 100.122 20.1278 100.04 19.9688H99.9501V21H98.4331ZM99.9458 17.7273C99.9458 18.1506 100.006 18.5213 100.125 18.8395C100.247 19.1577 100.422 19.4062 100.649 19.5852C100.879 19.7614 101.157 19.8494 101.484 19.8494C101.825 19.8494 102.111 19.7585 102.341 19.5767C102.571 19.392 102.744 19.1406 102.861 18.8224C102.98 18.5014 103.04 18.1364 103.04 17.7273C103.04 17.321 102.981 16.9602 102.865 16.6449C102.748 16.3295 102.575 16.0824 102.345 15.9034C102.115 15.7244 101.828 15.6349 101.484 15.6349C101.155 15.6349 100.875 15.7216 100.645 15.8949C100.415 16.0682 100.24 16.3111 100.121 16.6236C100.004 16.9361 99.9458 17.304 99.9458 17.7273ZM107.807 21.1321C107.392 21.1321 107.019 21.0582 106.686 20.9105C106.357 20.7599 106.095 20.5384 105.902 20.2457C105.712 19.9531 105.617 19.5923 105.617 19.1634C105.617 18.794 105.685 18.4886 105.821 18.2472C105.958 18.0057 106.144 17.8125 106.379 17.6676C106.615 17.5227 106.881 17.4134 107.176 17.3395C107.475 17.2628 107.783 17.2074 108.101 17.1733C108.485 17.1335 108.796 17.098 109.034 17.0668C109.273 17.0327 109.446 16.9815 109.554 16.9134C109.665 16.8423 109.72 16.733 109.72 16.5852V16.5597C109.72 16.2386 109.625 15.9901 109.435 15.8139C109.244 15.6378 108.97 15.5497 108.612 15.5497C108.235 15.5497 107.935 15.6321 107.713 15.7969C107.494 15.9616 107.347 16.1562 107.27 16.3807L105.83 16.1761C105.943 15.7784 106.131 15.446 106.392 15.179C106.654 14.9091 106.973 14.7074 107.351 14.5739C107.729 14.4375 108.146 14.3693 108.604 14.3693C108.919 14.3693 109.233 14.4062 109.546 14.4801C109.858 14.554 110.144 14.6761 110.402 14.8466C110.661 15.0142 110.868 15.2429 111.024 15.5327C111.183 15.8224 111.263 16.1847 111.263 16.6193V21H109.78V20.1009H109.729C109.635 20.2827 109.503 20.4531 109.333 20.6122C109.165 20.7685 108.953 20.8949 108.698 20.9915C108.445 21.0852 108.148 21.1321 107.807 21.1321ZM108.208 19.9986C108.517 19.9986 108.786 19.9375 109.013 19.8153C109.24 19.6903 109.415 19.5256 109.537 19.321C109.662 19.1165 109.725 18.8935 109.725 18.652V17.8807C109.676 17.9205 109.594 17.9574 109.477 17.9915C109.364 18.0256 109.236 18.0554 109.094 18.081C108.952 18.1065 108.811 18.1293 108.672 18.1491C108.533 18.169 108.412 18.1861 108.31 18.2003C108.08 18.2315 107.874 18.2827 107.692 18.3537C107.51 18.4247 107.367 18.5241 107.262 18.652C107.156 18.777 107.104 18.9389 107.104 19.1378C107.104 19.4219 107.208 19.6364 107.415 19.7812C107.622 19.9261 107.887 19.9986 108.208 19.9986ZM117.987 16.1847L116.581 16.3381C116.541 16.196 116.472 16.0625 116.372 15.9375C116.276 15.8125 116.145 15.7116 115.98 15.6349C115.816 15.5582 115.614 15.5199 115.375 15.5199C115.054 15.5199 114.784 15.5895 114.566 15.7287C114.35 15.8679 114.243 16.0483 114.246 16.2699C114.243 16.4602 114.313 16.6151 114.455 16.7344C114.6 16.8537 114.838 16.9517 115.171 17.0284L116.287 17.267C116.906 17.4006 117.367 17.6122 117.668 17.902C117.972 18.1918 118.125 18.571 118.128 19.0398C118.125 19.4517 118.004 19.8153 117.766 20.1307C117.53 20.4432 117.202 20.6875 116.781 20.8636C116.361 21.0398 115.878 21.1278 115.333 21.1278C114.531 21.1278 113.887 20.9602 113.398 20.625C112.909 20.2869 112.618 19.8168 112.524 19.2145L114.029 19.0696C114.097 19.3651 114.242 19.5881 114.463 19.7386C114.685 19.8892 114.973 19.9645 115.328 19.9645C115.695 19.9645 115.989 19.8892 116.21 19.7386C116.435 19.5881 116.547 19.402 116.547 19.1804C116.547 18.9929 116.475 18.8381 116.33 18.7159C116.188 18.5937 115.966 18.5 115.665 18.4347L114.548 18.2003C113.921 18.0696 113.456 17.8494 113.155 17.5398C112.854 17.2273 112.705 16.8324 112.708 16.3551C112.705 15.9517 112.814 15.6023 113.036 15.3068C113.26 15.0085 113.571 14.7784 113.969 14.6165C114.369 14.4517 114.831 14.3693 115.354 14.3693C116.121 14.3693 116.725 14.5327 117.165 14.8594C117.608 15.1861 117.882 15.6278 117.987 16.1847ZM122.298 21.1278C121.642 21.1278 121.075 20.9915 120.597 20.7188C120.123 20.4432 119.758 20.054 119.502 19.5511C119.247 19.0455 119.119 18.4503 119.119 17.7656C119.119 17.0923 119.247 16.5014 119.502 15.9929C119.761 15.4815 120.122 15.0838 120.585 14.7997C121.048 14.5128 121.592 14.3693 122.217 14.3693C122.62 14.3693 123.001 14.4347 123.359 14.5653C123.72 14.6932 124.038 14.892 124.313 15.1619C124.592 15.4318 124.811 15.7756 124.97 16.1932C125.129 16.608 125.208 17.1023 125.208 17.6761V18.1491H119.843V17.1094H123.73C123.727 16.8139 123.663 16.5511 123.538 16.321C123.413 16.0881 123.238 15.9048 123.014 15.7713C122.792 15.6378 122.534 15.571 122.238 15.571C121.923 15.571 121.646 15.6477 121.407 15.8011C121.169 15.9517 120.982 16.1506 120.849 16.3977C120.718 16.642 120.651 16.9105 120.649 17.2031V18.1108C120.649 18.4915 120.718 18.8182 120.857 19.0909C120.997 19.3608 121.191 19.5682 121.441 19.7131C121.691 19.8551 121.984 19.9261 122.319 19.9261C122.544 19.9261 122.747 19.8949 122.928 19.8324C123.11 19.767 123.268 19.6719 123.401 19.5469C123.535 19.4219 123.636 19.267 123.704 19.0824L125.144 19.2443C125.053 19.625 124.88 19.9574 124.624 20.2415C124.372 20.5227 124.048 20.7415 123.653 20.8977C123.258 21.0511 122.806 21.1278 122.298 21.1278ZM133.023 12.2727V21H131.442V13.8111H131.39L129.349 15.1151V13.6662L131.518 12.2727H133.023Z" fill="black"/>
<path d="M95.1067 68.4545V69.3068H91.5783V68.4545H95.1067ZM92.6351 75V67.5511C92.6351 67.1761 92.7232 66.8636 92.8993 66.6136C93.0755 66.3636 93.3042 66.1761 93.5854 66.0511C93.8667 65.9261 94.1635 65.8636 94.476 65.8636C94.7232 65.8636 94.9249 65.8835 95.0811 65.9233C95.2374 65.9631 95.3539 66 95.4306 66.0341L95.1408 66.9034C95.0897 66.8864 95.0186 66.8651 94.9277 66.8395C94.8397 66.8139 94.7232 66.8011 94.5783 66.8011C94.2459 66.8011 94.0059 66.8849 93.8581 67.0526C93.7132 67.2202 93.6408 67.4659 93.6408 67.7898V75H92.6351ZM96.5162 75V68.4545H97.5218V75H96.5162ZM97.0275 67.3636C96.8315 67.3636 96.6625 67.2969 96.5204 67.1634C96.3812 67.0298 96.3116 66.8693 96.3116 66.6818C96.3116 66.4943 96.3812 66.3338 96.5204 66.2003C96.6625 66.0668 96.8315 66 97.0275 66C97.2235 66 97.3912 66.0668 97.5304 66.2003C97.6724 66.3338 97.7434 66.4943 97.7434 66.6818C97.7434 66.8693 97.6724 67.0298 97.5304 67.1634C97.3912 67.2969 97.2235 67.3636 97.0275 67.3636ZM102.108 75.1364C101.477 75.1364 100.933 74.9972 100.476 74.7188C100.021 74.4375 99.6706 74.0455 99.4235 73.5426C99.1792 73.0369 99.057 72.4489 99.057 71.7784C99.057 71.108 99.1792 70.517 99.4235 70.0057C99.6706 69.4915 100.014 69.0909 100.455 68.804C100.898 68.5142 101.415 68.3693 102.006 68.3693C102.347 68.3693 102.683 68.4261 103.016 68.5398C103.348 68.6534 103.651 68.8381 103.923 69.0938C104.196 69.3466 104.414 69.6818 104.575 70.0994C104.737 70.517 104.818 71.0312 104.818 71.642V72.0682H99.7729V71.1989H103.796C103.796 70.8295 103.722 70.5 103.574 70.2102C103.429 69.9205 103.222 69.6918 102.952 69.5241C102.685 69.3565 102.369 69.2727 102.006 69.2727C101.605 69.2727 101.259 69.3722 100.966 69.571C100.676 69.767 100.453 70.0227 100.297 70.3381C100.141 70.6534 100.063 70.9915 100.063 71.3523V71.9318C100.063 72.4261 100.148 72.8452 100.318 73.1889C100.492 73.5298 100.732 73.7898 101.039 73.9688C101.345 74.1449 101.702 74.233 102.108 74.233C102.372 74.233 102.611 74.196 102.824 74.1222C103.04 74.0455 103.226 73.9318 103.382 73.7812C103.539 73.6278 103.659 73.4375 103.744 73.2102L104.716 73.483C104.614 73.8125 104.442 74.1023 104.2 74.3523C103.959 74.5994 103.661 74.7926 103.306 74.9318C102.95 75.0682 102.551 75.1364 102.108 75.1364ZM107.354 66.2727V75H106.348V66.2727H107.354ZM111.667 75.1364C111.122 75.1364 110.64 74.9986 110.223 74.723C109.805 74.4446 109.479 74.0526 109.243 73.5469C109.007 73.0384 108.889 72.4375 108.889 71.7443C108.889 71.0568 109.007 70.4602 109.243 69.9545C109.479 69.4489 109.807 69.0582 110.227 68.7827C110.648 68.5071 111.133 68.3693 111.684 68.3693C112.111 68.3693 112.447 68.4403 112.694 68.5824C112.944 68.7216 113.135 68.8807 113.265 69.0597C113.399 69.2358 113.503 69.3807 113.577 69.4943H113.662V66.2727H114.667V75H113.696V73.9943H113.577C113.503 74.1136 113.398 74.2642 113.261 74.446C113.125 74.625 112.93 74.7855 112.677 74.9276C112.425 75.0668 112.088 75.1364 111.667 75.1364ZM111.804 74.233C112.207 74.233 112.548 74.1278 112.827 73.9176C113.105 73.7045 113.317 73.4105 113.461 73.0355C113.606 72.6577 113.679 72.2216 113.679 71.7273C113.679 71.2386 113.608 70.8111 113.466 70.4446C113.324 70.0753 113.113 69.7884 112.835 69.5838C112.557 69.3764 112.213 69.2727 111.804 69.2727C111.378 69.2727 111.023 69.3821 110.738 69.6009C110.457 69.8168 110.246 70.1108 110.104 70.483C109.964 70.8523 109.895 71.267 109.895 71.7273C109.895 72.1932 109.966 72.6165 110.108 72.9972C110.253 73.375 110.466 73.6761 110.747 73.9006C111.031 74.1222 111.383 74.233 111.804 74.233Z" fill="black"/>
<path d="M333.107 68.4545V69.3068H329.578V68.4545H333.107ZM330.635 75V67.5511C330.635 67.1761 330.723 66.8636 330.899 66.6136C331.075 66.3636 331.304 66.1761 331.585 66.0511C331.867 65.9261 332.164 65.8636 332.476 65.8636C332.723 65.8636 332.925 65.8835 333.081 65.9233C333.237 65.9631 333.354 66 333.431 66.0341L333.141 66.9034C333.09 66.8864 333.019 66.8651 332.928 66.8395C332.84 66.8139 332.723 66.8011 332.578 66.8011C332.246 66.8011 332.006 66.8849 331.858 67.0526C331.713 67.2202 331.641 67.4659 331.641 67.7898V75H330.635ZM334.516 75V68.4545H335.522V75H334.516ZM335.028 67.3636C334.831 67.3636 334.662 67.2969 334.52 67.1634C334.381 67.0298 334.312 66.8693 334.312 66.6818C334.312 66.4943 334.381 66.3338 334.52 66.2003C334.662 66.0668 334.831 66 335.028 66C335.224 66 335.391 66.0668 335.53 66.2003C335.672 66.3338 335.743 66.4943 335.743 66.6818C335.743 66.8693 335.672 67.0298 335.53 67.1634C335.391 67.2969 335.224 67.3636 335.028 67.3636ZM340.108 75.1364C339.477 75.1364 338.933 74.9972 338.476 74.7188C338.021 74.4375 337.671 74.0455 337.423 73.5426C337.179 73.0369 337.057 72.4489 337.057 71.7784C337.057 71.108 337.179 70.517 337.423 70.0057C337.671 69.4915 338.014 69.0909 338.455 68.804C338.898 68.5142 339.415 68.3693 340.006 68.3693C340.347 68.3693 340.683 68.4261 341.016 68.5398C341.348 68.6534 341.651 68.8381 341.923 69.0938C342.196 69.3466 342.414 69.6818 342.575 70.0994C342.737 70.517 342.818 71.0312 342.818 71.642V72.0682H337.773V71.1989H341.796C341.796 70.8295 341.722 70.5 341.574 70.2102C341.429 69.9205 341.222 69.6918 340.952 69.5241C340.685 69.3565 340.369 69.2727 340.006 69.2727C339.605 69.2727 339.259 69.3722 338.966 69.571C338.676 69.767 338.453 70.0227 338.297 70.3381C338.141 70.6534 338.063 70.9915 338.063 71.3523V71.9318C338.063 72.4261 338.148 72.8452 338.318 73.1889C338.492 73.5298 338.732 73.7898 339.039 73.9688C339.345 74.1449 339.702 74.233 340.108 74.233C340.372 74.233 340.611 74.196 340.824 74.1222C341.04 74.0455 341.226 73.9318 341.382 73.7812C341.539 73.6278 341.659 73.4375 341.744 73.2102L342.716 73.483C342.614 73.8125 342.442 74.1023 342.2 74.3523C341.959 74.5994 341.661 74.7926 341.306 74.9318C340.95 75.0682 340.551 75.1364 340.108 75.1364ZM345.354 66.2727V75H344.348V66.2727H345.354ZM349.667 75.1364C349.122 75.1364 348.64 74.9986 348.223 74.723C347.805 74.4446 347.479 74.0526 347.243 73.5469C347.007 73.0384 346.889 72.4375 346.889 71.7443C346.889 71.0568 347.007 70.4602 347.243 69.9545C347.479 69.4489 347.807 69.0582 348.227 68.7827C348.648 68.5071 349.133 68.3693 349.684 68.3693C350.111 68.3693 350.447 68.4403 350.694 68.5824C350.944 68.7216 351.135 68.8807 351.265 69.0597C351.399 69.2358 351.503 69.3807 351.577 69.4943H351.662V66.2727H352.667V75H351.696V73.9943H351.577C351.503 74.1136 351.398 74.2642 351.261 74.446C351.125 74.625 350.93 74.7855 350.677 74.9276C350.425 75.0668 350.088 75.1364 349.667 75.1364ZM349.804 74.233C350.207 74.233 350.548 74.1278 350.827 73.9176C351.105 73.7045 351.317 73.4105 351.461 73.0355C351.606 72.6577 351.679 72.2216 351.679 71.7273C351.679 71.2386 351.608 70.8111 351.466 70.4446C351.324 70.0753 351.113 69.7884 350.835 69.5838C350.557 69.3764 350.213 69.2727 349.804 69.2727C349.378 69.2727 349.023 69.3821 348.738 69.6009C348.457 69.8168 348.246 70.1108 348.104 70.483C347.964 70.8523 347.895 71.267 347.895 71.7273C347.895 72.1932 347.966 72.6165 348.108 72.9972C348.253 73.375 348.466 73.6761 348.747 73.9006C349.031 74.1222 349.383 74.233 349.804 74.233Z" fill="black"/>
<path d="M311.512 21H308.554V12.2727H311.571C312.438 12.2727 313.182 12.4474 313.804 12.7969C314.429 13.1435 314.909 13.642 315.244 14.2926C315.58 14.9432 315.747 15.7216 315.747 16.6278C315.747 17.5369 315.578 18.3182 315.24 18.9716C314.905 19.625 314.421 20.1264 313.787 20.4759C313.156 20.8253 312.398 21 311.512 21ZM310.135 19.6321H311.435C312.043 19.6321 312.55 19.5213 312.956 19.2997C313.362 19.0753 313.668 18.7415 313.872 18.2983C314.077 17.8523 314.179 17.2955 314.179 16.6278C314.179 15.9602 314.077 15.4062 313.872 14.9659C313.668 14.5227 313.365 14.1918 312.965 13.973C312.567 13.7514 312.073 13.6406 311.482 13.6406H310.135V19.6321ZM319.065 21.1321C318.65 21.1321 318.276 21.0582 317.944 20.9105C317.615 20.7599 317.353 20.5384 317.16 20.2457C316.97 19.9531 316.874 19.5923 316.874 19.1634C316.874 18.794 316.943 18.4886 317.079 18.2472C317.215 18.0057 317.401 17.8125 317.637 17.6676C317.873 17.5227 318.139 17.4134 318.434 17.3395C318.732 17.2628 319.041 17.2074 319.359 17.1733C319.742 17.1335 320.053 17.098 320.292 17.0668C320.531 17.0327 320.704 16.9815 320.812 16.9134C320.923 16.8423 320.978 16.733 320.978 16.5852V16.5597C320.978 16.2386 320.883 15.9901 320.693 15.8139C320.502 15.6378 320.228 15.5497 319.87 15.5497C319.492 15.5497 319.193 15.6321 318.971 15.7969C318.752 15.9616 318.605 16.1562 318.528 16.3807L317.088 16.1761C317.201 15.7784 317.389 15.446 317.65 15.179C317.911 14.9091 318.231 14.7074 318.609 14.5739C318.987 14.4375 319.404 14.3693 319.862 14.3693C320.177 14.3693 320.491 14.4062 320.803 14.4801C321.116 14.554 321.401 14.6761 321.66 14.8466C321.919 15.0142 322.126 15.2429 322.282 15.5327C322.441 15.8224 322.521 16.1847 322.521 16.6193V21H321.038V20.1009H320.987C320.893 20.2827 320.761 20.4531 320.59 20.6122C320.423 20.7685 320.211 20.8949 319.955 20.9915C319.703 21.0852 319.406 21.1321 319.065 21.1321ZM319.465 19.9986C319.775 19.9986 320.044 19.9375 320.271 19.8153C320.498 19.6903 320.673 19.5256 320.795 19.321C320.92 19.1165 320.982 18.8935 320.982 18.652V17.8807C320.934 17.9205 320.852 17.9574 320.735 17.9915C320.622 18.0256 320.494 18.0554 320.352 18.081C320.21 18.1065 320.069 18.1293 319.93 18.1491C319.791 18.169 319.67 18.1861 319.568 18.2003C319.338 18.2315 319.132 18.2827 318.95 18.3537C318.768 18.4247 318.624 18.5241 318.519 18.652C318.414 18.777 318.362 18.9389 318.362 19.1378C318.362 19.4219 318.465 19.6364 318.673 19.7812C318.88 19.9261 319.144 19.9986 319.465 19.9986ZM327.34 14.4545V15.6477H323.578V14.4545H327.34ZM324.507 12.8864H326.049V19.0312C326.049 19.2386 326.08 19.3977 326.143 19.5085C326.208 19.6165 326.294 19.6903 326.399 19.7301C326.504 19.7699 326.62 19.7898 326.748 19.7898C326.845 19.7898 326.933 19.7827 327.012 19.7685C327.095 19.7543 327.157 19.7415 327.2 19.7301L327.46 20.9361C327.377 20.9645 327.259 20.9957 327.106 21.0298C326.955 21.0639 326.771 21.0838 326.552 21.0895C326.166 21.1009 325.818 21.0426 325.508 20.9148C325.198 20.7841 324.953 20.5824 324.771 20.3097C324.592 20.0369 324.504 19.696 324.507 19.2869V12.8864ZM330.514 21.1321C330.099 21.1321 329.726 21.0582 329.393 20.9105C329.064 20.7599 328.802 20.5384 328.609 20.2457C328.419 19.9531 328.324 19.5923 328.324 19.1634C328.324 18.794 328.392 18.4886 328.528 18.2472C328.665 18.0057 328.851 17.8125 329.086 17.6676C329.322 17.5227 329.588 17.4134 329.883 17.3395C330.182 17.2628 330.49 17.2074 330.808 17.1733C331.192 17.1335 331.503 17.098 331.741 17.0668C331.98 17.0327 332.153 16.9815 332.261 16.9134C332.372 16.8423 332.427 16.733 332.427 16.5852V16.5597C332.427 16.2386 332.332 15.9901 332.142 15.8139C331.952 15.6378 331.677 15.5497 331.319 15.5497C330.942 15.5497 330.642 15.6321 330.42 15.7969C330.202 15.9616 330.054 16.1562 329.977 16.3807L328.537 16.1761C328.65 15.7784 328.838 15.446 329.099 15.179C329.361 14.9091 329.68 14.7074 330.058 14.5739C330.436 14.4375 330.854 14.3693 331.311 14.3693C331.626 14.3693 331.94 14.4062 332.253 14.4801C332.565 14.554 332.851 14.6761 333.109 14.8466C333.368 15.0142 333.575 15.2429 333.731 15.5327C333.89 15.8224 333.97 16.1847 333.97 16.6193V21H332.487V20.1009H332.436C332.342 20.2827 332.21 20.4531 332.04 20.6122C331.872 20.7685 331.66 20.8949 331.405 20.9915C331.152 21.0852 330.855 21.1321 330.514 21.1321ZM330.915 19.9986C331.224 19.9986 331.493 19.9375 331.72 19.8153C331.947 19.6903 332.122 19.5256 332.244 19.321C332.369 19.1165 332.432 18.8935 332.432 18.652V17.8807C332.383 17.9205 332.301 17.9574 332.184 17.9915C332.071 18.0256 331.943 18.0554 331.801 18.081C331.659 18.1065 331.518 18.1293 331.379 18.1491C331.24 18.169 331.119 18.1861 331.017 18.2003C330.787 18.2315 330.581 18.2827 330.399 18.3537C330.217 18.4247 330.074 18.5241 329.969 18.652C329.863 18.777 329.811 18.9389 329.811 19.1378C329.811 19.4219 329.915 19.6364 330.122 19.7812C330.329 19.9261 330.594 19.9986 330.915 19.9986ZM335.589 21V12.2727H337.132V15.5369H337.196C337.275 15.3778 337.388 15.2088 337.532 15.0298C337.677 14.848 337.873 14.6932 338.121 14.5653C338.368 14.4347 338.683 14.3693 339.067 14.3693C339.572 14.3693 340.028 14.4986 340.434 14.7571C340.844 15.0128 341.167 15.392 341.406 15.8949C341.648 16.3949 341.768 17.0085 341.768 17.7358C341.768 18.4545 341.65 19.0653 341.415 19.5682C341.179 20.071 340.858 20.4545 340.452 20.7188C340.045 20.983 339.585 21.1151 339.071 21.1151C338.696 21.1151 338.385 21.0526 338.138 20.9276C337.89 20.8026 337.692 20.652 337.541 20.4759C337.393 20.2969 337.278 20.1278 337.196 19.9688H337.106V21H335.589ZM337.102 17.7273C337.102 18.1506 337.162 18.5213 337.281 18.8395C337.403 19.1577 337.578 19.4062 337.805 19.5852C338.035 19.7614 338.314 19.8494 338.64 19.8494C338.981 19.8494 339.267 19.7585 339.497 19.5767C339.727 19.392 339.9 19.1406 340.017 18.8224C340.136 18.5014 340.196 18.1364 340.196 17.7273C340.196 17.321 340.138 16.9602 340.021 16.6449C339.905 16.3295 339.731 16.0824 339.501 15.9034C339.271 15.7244 338.984 15.6349 338.64 15.6349C338.311 15.6349 338.031 15.7216 337.801 15.8949C337.571 16.0682 337.396 16.3111 337.277 16.6236C337.16 16.9361 337.102 17.304 337.102 17.7273ZM344.963 21.1321C344.548 21.1321 344.175 21.0582 343.843 20.9105C343.513 20.7599 343.252 20.5384 343.058 20.2457C342.868 19.9531 342.773 19.5923 342.773 19.1634C342.773 18.794 342.841 18.4886 342.977 18.2472C343.114 18.0057 343.3 17.8125 343.536 17.6676C343.771 17.5227 344.037 17.4134 344.333 17.3395C344.631 17.2628 344.939 17.2074 345.257 17.1733C345.641 17.1335 345.952 17.098 346.191 17.0668C346.429 17.0327 346.602 16.9815 346.71 16.9134C346.821 16.8423 346.877 16.733 346.877 16.5852V16.5597C346.877 16.2386 346.781 15.9901 346.591 15.8139C346.401 15.6378 346.127 15.5497 345.769 15.5497C345.391 15.5497 345.091 15.6321 344.869 15.7969C344.651 15.9616 344.503 16.1562 344.426 16.3807L342.986 16.1761C343.1 15.7784 343.287 15.446 343.548 15.179C343.81 14.9091 344.129 14.7074 344.507 14.5739C344.885 14.4375 345.303 14.3693 345.76 14.3693C346.075 14.3693 346.389 14.4062 346.702 14.4801C347.014 14.554 347.3 14.6761 347.558 14.8466C347.817 15.0142 348.024 15.2429 348.181 15.5327C348.34 15.8224 348.419 16.1847 348.419 16.6193V21H346.936V20.1009H346.885C346.791 20.2827 346.659 20.4531 346.489 20.6122C346.321 20.7685 346.11 20.8949 345.854 20.9915C345.601 21.0852 345.304 21.1321 344.963 21.1321ZM345.364 19.9986C345.673 19.9986 345.942 19.9375 346.169 19.8153C346.396 19.6903 346.571 19.5256 346.693 19.321C346.818 19.1165 346.881 18.8935 346.881 18.652V17.8807C346.833 17.9205 346.75 17.9574 346.634 17.9915C346.52 18.0256 346.392 18.0554 346.25 18.081C346.108 18.1065 345.968 18.1293 345.828 18.1491C345.689 18.169 345.568 18.1861 345.466 18.2003C345.236 18.2315 345.03 18.2827 344.848 18.3537C344.666 18.4247 344.523 18.5241 344.418 18.652C344.313 18.777 344.26 18.9389 344.26 19.1378C344.26 19.4219 344.364 19.6364 344.571 19.7812C344.779 19.9261 345.043 19.9986 345.364 19.9986ZM355.144 16.1847L353.737 16.3381C353.698 16.196 353.628 16.0625 353.529 15.9375C353.432 15.8125 353.301 15.7116 353.137 15.6349C352.972 15.5582 352.77 15.5199 352.531 15.5199C352.21 15.5199 351.941 15.5895 351.722 15.7287C351.506 15.8679 351.399 16.0483 351.402 16.2699C351.399 16.4602 351.469 16.6151 351.611 16.7344C351.756 16.8537 351.994 16.9517 352.327 17.0284L353.443 17.267C354.063 17.4006 354.523 17.6122 354.824 17.902C355.128 18.1918 355.281 18.571 355.284 19.0398C355.281 19.4517 355.161 19.8153 354.922 20.1307C354.686 20.4432 354.358 20.6875 353.938 20.8636C353.517 21.0398 353.034 21.1278 352.489 21.1278C351.688 21.1278 351.043 20.9602 350.554 20.625C350.066 20.2869 349.774 19.8168 349.681 19.2145L351.185 19.0696C351.253 19.3651 351.398 19.5881 351.619 19.7386C351.841 19.8892 352.129 19.9645 352.485 19.9645C352.851 19.9645 353.145 19.8892 353.367 19.7386C353.591 19.5881 353.703 19.402 353.703 19.1804C353.703 18.9929 353.631 18.8381 353.486 18.7159C353.344 18.5937 353.122 18.5 352.821 18.4347L351.705 18.2003C351.077 18.0696 350.612 17.8494 350.311 17.5398C350.01 17.2273 349.861 16.8324 349.864 16.3551C349.861 15.9517 349.97 15.6023 350.192 15.3068C350.416 15.0085 350.727 14.7784 351.125 14.6165C351.526 14.4517 351.987 14.3693 352.51 14.3693C353.277 14.3693 353.881 14.5327 354.321 14.8594C354.764 15.1861 355.039 15.6278 355.144 16.1847ZM359.454 21.1278C358.798 21.1278 358.231 20.9915 357.754 20.7188C357.279 20.4432 356.914 20.054 356.659 19.5511C356.403 19.0455 356.275 18.4503 356.275 17.7656C356.275 17.0923 356.403 16.5014 356.659 15.9929C356.917 15.4815 357.278 15.0838 357.741 14.7997C358.204 14.5128 358.748 14.3693 359.373 14.3693C359.776 14.3693 360.157 14.4347 360.515 14.5653C360.876 14.6932 361.194 14.892 361.47 15.1619C361.748 15.4318 361.967 15.7756 362.126 16.1932C362.285 16.608 362.365 17.1023 362.365 17.6761V18.1491H356.999V17.1094H360.886C360.883 16.8139 360.819 16.5511 360.694 16.321C360.569 16.0881 360.394 15.9048 360.17 15.7713C359.948 15.6378 359.69 15.571 359.394 15.571C359.079 15.571 358.802 15.6477 358.563 15.8011C358.325 15.9517 358.139 16.1506 358.005 16.3977C357.874 16.642 357.808 16.9105 357.805 17.2031V18.1108C357.805 18.4915 357.874 18.8182 358.014 19.0909C358.153 19.3608 358.347 19.5682 358.597 19.7131C358.847 19.8551 359.14 19.9261 359.475 19.9261C359.7 19.9261 359.903 19.8949 360.085 19.8324C360.267 19.767 360.424 19.6719 360.558 19.5469C360.691 19.4219 360.792 19.267 360.86 19.0824L362.301 19.2443C362.21 19.625 362.036 19.9574 361.781 20.2415C361.528 20.5227 361.204 20.7415 360.809 20.8977C360.414 21.0511 359.963 21.1278 359.454 21.1278ZM366.629 21V19.858L369.659 16.8878C369.949 16.5952 370.19 16.3352 370.383 16.108C370.577 15.8807 370.721 15.6605 370.818 15.4474C370.915 15.2344 370.963 15.0071 370.963 14.7656C370.963 14.4901 370.9 14.2543 370.775 14.0582C370.65 13.8594 370.479 13.706 370.26 13.598C370.041 13.4901 369.792 13.4361 369.514 13.4361C369.227 13.4361 368.976 13.4957 368.76 13.6151C368.544 13.7315 368.376 13.8977 368.257 14.1136C368.14 14.3295 368.082 14.5866 368.082 14.8849H366.578C366.578 14.331 366.704 13.8494 366.957 13.4403C367.21 13.0312 367.558 12.7145 368.001 12.4901C368.447 12.2656 368.959 12.1534 369.535 12.1534C370.121 12.1534 370.635 12.2628 371.078 12.4815C371.521 12.7003 371.865 13 372.109 13.3807C372.356 13.7614 372.48 14.196 372.48 14.6847C372.48 15.0114 372.417 15.3324 372.292 15.6477C372.167 15.9631 371.947 16.3125 371.632 16.696C371.319 17.0795 370.881 17.544 370.315 18.0895L368.811 19.6193V19.679H372.612V21H366.629Z" fill="black"/>
<line x1="52" y1="31" x2="152" y2="31" stroke="#393939" stroke-width="2"/>
<line x1="290" y1="31" x2="390" y2="31" stroke="#393939" stroke-width="2"/>
<line x1="153" y1="69" x2="288" y2="69" stroke="black" stroke-width="2" stroke-dasharray="4 4"/>
<rect x="133" y="45" width="48" height="48" fill="white" stroke="black" stroke-width="2"/>
<line x1="132" y1="61" x2="182" y2="61" stroke="black" stroke-width="2"/>
<line x1="132" y1="77" x2="182" y2="77" stroke="black" stroke-width="2"/>
<line x1="132" y1="53" x2="182" y2="53" stroke="black" stroke-width="2"/>
<line x1="132" y1="69" x2="182" y2="69" stroke="black" stroke-width="2"/>
<line x1="132" y1="85" x2="182" y2="85" stroke="black" stroke-width="2"/>
<line x1="149" y1="44" x2="149" y2="93" stroke="black" stroke-width="2"/>
<line x1="166" y1="44" x2="166" y2="93" stroke="black" stroke-width="2"/>
<defs>
<filter id="filter0_d_304_2" x="46" y="0" width="112" height="129" filterUnits="userSpaceOnUse" color-interpolation-filters="sRGB">
<feFlood flood-opacity="0" result="BackgroundImageFix"/>
<feColorMatrix in="SourceAlpha" type="matrix" values="0 0 0 0 0 0 0 0 0 0 0 0 0 0 0 0 0 0 127 0" result="hardAlpha"/>
<feOffset dy="4"/>
<feGaussianBlur stdDeviation="2"/>
<feComposite in2="hardAlpha" operator="out"/>
<feColorMatrix type="matrix" values="0 0 0 0 0 0 0 0 0 0 0 0 0 0 0 0 0 0 0.25 0"/>
<feBlend mode="normal" in2="BackgroundImageFix" result="effect1_dropShadow_304_2"/>
<feBlend mode="normal" in="SourceGraphic" in2="effect1_dropShadow_304_2" result="shape"/>
</filter>
<filter id="filter1_d_304_2" x="284" y="0" width="112" height="129" filterUnits="userSpaceOnUse" color-interpolation-filters="sRGB">
<feFlood flood-opacity="0" result="BackgroundImageFix"/>
<feColorMatrix in="SourceAlpha" type="matrix" values="0 0 0 0 0 0 0 0 0 0 0 0 0 0 0 0 0 0 127 0" result="hardAlpha"/>
<feOffset dy="4"/>
<feGaussianBlur stdDeviation="2"/>
<feComposite in2="hardAlpha" operator="out"/>
<feColorMatrix type="matrix" values="0 0 0 0 0 0 0 0 0 0 0 0 0 0 0 0 0 0 0.25 0"/>
<feBlend mode="normal" in2="BackgroundImageFix" result="effect1_dropShadow_304_2"/>
<feBlend mode="normal" in="SourceGraphic" in2="effect1_dropShadow_304_2" result="shape"/>
</filter>
</defs>
</svg>
