<svg width="294" height="176" viewBox="0 0 294 176" fill="none" xmlns="http://www.w3.org/2000/svg">
<g filter="url(#filter0_d_277_964)">
<rect x="71" width="149" height="168" rx="10" fill="white"/>
<rect x="72" y="1" width="147" height="166" rx="9" stroke="black" stroke-width="2"/>
</g>
<path d="M123.198 28.1151C122.684 28.1151 122.224 27.983 121.817 27.7188C121.411 27.4545 121.09 27.071 120.854 26.5682C120.619 26.0653 120.501 25.4545 120.501 24.7358C120.501 24.0085 120.62 23.3949 120.859 22.8949C121.1 22.392 121.425 22.0128 121.835 21.7571C122.244 21.4986 122.7 21.3693 123.202 21.3693C123.586 21.3693 123.901 21.4347 124.148 21.5653C124.396 21.6932 124.592 21.848 124.737 22.0298C124.881 22.2088 124.994 22.3778 125.073 22.5369H125.137V19.2727H126.684V28H125.167V26.9688H125.073C124.994 27.1278 124.879 27.2969 124.728 27.4759C124.577 27.652 124.379 27.8026 124.131 27.9276C123.884 28.0526 123.573 28.1151 123.198 28.1151ZM123.629 26.8494C123.955 26.8494 124.234 26.7614 124.464 26.5852C124.694 26.4062 124.869 26.1577 124.988 25.8395C125.107 25.5213 125.167 25.1506 125.167 24.7273C125.167 24.304 125.107 23.9361 124.988 23.6236C124.871 23.3111 124.698 23.0682 124.468 22.8949C124.241 22.7216 123.961 22.6349 123.629 22.6349C123.285 22.6349 122.998 22.7244 122.768 22.9034C122.538 23.0824 122.364 23.3295 122.248 23.6449C122.131 23.9602 122.073 24.321 122.073 24.7273C122.073 25.1364 122.131 25.5014 122.248 25.8224C122.367 26.1406 122.542 26.392 122.772 26.5767C123.005 26.7585 123.29 26.8494 123.629 26.8494ZM130.211 28.1321C129.797 28.1321 129.423 28.0582 129.091 27.9105C128.761 27.7599 128.5 27.5384 128.306 27.2457C128.116 26.9531 128.021 26.5923 128.021 26.1634C128.021 25.794 128.089 25.4886 128.225 25.2472C128.362 25.0057 128.548 24.8125 128.784 24.6676C129.02 24.5227 129.285 24.4134 129.581 24.3395C129.879 24.2628 130.187 24.2074 130.505 24.1733C130.889 24.1335 131.2 24.098 131.439 24.0668C131.677 24.0327 131.85 23.9815 131.958 23.9134C132.069 23.8423 132.125 23.733 132.125 23.5852V23.5597C132.125 23.2386 132.029 22.9901 131.839 22.8139C131.649 22.6378 131.375 22.5497 131.017 22.5497C130.639 22.5497 130.339 22.6321 130.118 22.7969C129.899 22.9616 129.751 23.1562 129.674 23.3807L128.234 23.1761C128.348 22.7784 128.535 22.446 128.797 22.179C129.058 21.9091 129.377 21.7074 129.755 21.5739C130.133 21.4375 130.551 21.3693 131.008 21.3693C131.324 21.3693 131.637 21.4062 131.95 21.4801C132.262 21.554 132.548 21.6761 132.806 21.8466C133.065 22.0142 133.272 22.2429 133.429 22.5327C133.588 22.8224 133.667 23.1847 133.667 23.6193V28H132.184V27.1009H132.133C132.039 27.2827 131.907 27.4531 131.737 27.6122C131.569 27.7685 131.358 27.8949 131.102 27.9915C130.849 28.0852 130.552 28.1321 130.211 28.1321ZM130.612 26.9986C130.922 26.9986 131.19 26.9375 131.417 26.8153C131.645 26.6903 131.819 26.5256 131.941 26.321C132.066 26.1165 132.129 25.8935 132.129 25.652V24.8807C132.081 24.9205 131.998 24.9574 131.882 24.9915C131.768 25.0256 131.64 25.0554 131.498 25.081C131.356 25.1065 131.216 25.1293 131.076 25.1491C130.937 25.169 130.816 25.1861 130.714 25.2003C130.484 25.2315 130.278 25.2827 130.096 25.3537C129.914 25.4247 129.771 25.5241 129.666 25.652C129.561 25.777 129.508 25.9389 129.508 26.1378C129.508 26.4219 129.612 26.6364 129.819 26.7812C130.027 26.9261 130.291 26.9986 130.612 26.9986ZM138.487 21.4545V22.6477H134.724V21.4545H138.487ZM135.653 19.8864H137.196V26.0312C137.196 26.2386 137.227 26.3977 137.289 26.5085C137.355 26.6165 137.44 26.6903 137.545 26.7301C137.65 26.7699 137.767 26.7898 137.895 26.7898C137.991 26.7898 138.079 26.7827 138.159 26.7685C138.241 26.7543 138.304 26.7415 138.346 26.7301L138.606 27.9361C138.524 27.9645 138.406 27.9957 138.252 28.0298C138.102 28.0639 137.917 28.0838 137.699 28.0895C137.312 28.1009 136.964 28.0426 136.654 27.9148C136.345 27.7841 136.099 27.5824 135.917 27.3097C135.738 27.0369 135.65 26.696 135.653 26.2869V19.8864ZM141.661 28.1321C141.246 28.1321 140.872 28.0582 140.54 27.9105C140.21 27.7599 139.949 27.5384 139.756 27.2457C139.565 26.9531 139.47 26.5923 139.47 26.1634C139.47 25.794 139.538 25.4886 139.675 25.2472C139.811 25.0057 139.997 24.8125 140.233 24.6676C140.469 24.5227 140.734 24.4134 141.03 24.3395C141.328 24.2628 141.636 24.2074 141.955 24.1733C142.338 24.1335 142.649 24.098 142.888 24.0668C143.126 24.0327 143.3 23.9815 143.408 23.9134C143.518 23.8423 143.574 23.733 143.574 23.5852V23.5597C143.574 23.2386 143.479 22.9901 143.288 22.8139C143.098 22.6378 142.824 22.5497 142.466 22.5497C142.088 22.5497 141.788 22.6321 141.567 22.7969C141.348 22.9616 141.2 23.1562 141.124 23.3807L139.683 23.1761C139.797 22.7784 139.984 22.446 140.246 22.179C140.507 21.9091 140.827 21.7074 141.205 21.5739C141.582 21.4375 142 21.3693 142.457 21.3693C142.773 21.3693 143.087 21.4062 143.399 21.4801C143.712 21.554 143.997 21.6761 144.256 21.8466C144.514 22.0142 144.722 22.2429 144.878 22.5327C145.037 22.8224 145.116 23.1847 145.116 23.6193V28H143.634V27.1009H143.582C143.489 27.2827 143.357 27.4531 143.186 27.6122C143.018 27.7685 142.807 27.8949 142.551 27.9915C142.298 28.0852 142.001 28.1321 141.661 28.1321ZM142.061 26.9986C142.371 26.9986 142.639 26.9375 142.866 26.8153C143.094 26.6903 143.268 26.5256 143.391 26.321C143.516 26.1165 143.578 25.8935 143.578 25.652V24.8807C143.53 24.9205 143.447 24.9574 143.331 24.9915C143.217 25.0256 143.089 25.0554 142.947 25.081C142.805 25.1065 142.665 25.1293 142.526 25.1491C142.386 25.169 142.266 25.1861 142.163 25.2003C141.933 25.2315 141.727 25.2827 141.545 25.3537C141.364 25.4247 141.22 25.5241 141.115 25.652C141.01 25.777 140.957 25.9389 140.957 26.1378C140.957 26.4219 141.061 26.6364 141.268 26.7812C141.476 26.9261 141.74 26.9986 142.061 26.9986ZM146.736 28V19.2727H148.278V22.5369H148.342C148.422 22.3778 148.534 22.2088 148.679 22.0298C148.824 21.848 149.02 21.6932 149.267 21.5653C149.514 21.4347 149.83 21.3693 150.213 21.3693C150.719 21.3693 151.175 21.4986 151.581 21.7571C151.99 22.0128 152.314 22.392 152.553 22.8949C152.794 23.3949 152.915 24.0085 152.915 24.7358C152.915 25.4545 152.797 26.0653 152.561 26.5682C152.325 27.071 152.004 27.4545 151.598 27.7188C151.192 27.983 150.732 28.1151 150.217 28.1151C149.842 28.1151 149.531 28.0526 149.284 27.9276C149.037 27.8026 148.838 27.652 148.688 27.4759C148.54 27.2969 148.425 27.1278 148.342 26.9688H148.253V28H146.736ZM148.249 24.7273C148.249 25.1506 148.308 25.5213 148.428 25.8395C148.55 26.1577 148.724 26.4062 148.952 26.5852C149.182 26.7614 149.46 26.8494 149.787 26.8494C150.128 26.8494 150.413 26.7585 150.643 26.5767C150.874 26.392 151.047 26.1406 151.163 25.8224C151.283 25.5014 151.342 25.1364 151.342 24.7273C151.342 24.321 151.284 23.9602 151.168 23.6449C151.051 23.3295 150.878 23.0824 150.648 22.9034C150.418 22.7244 150.131 22.6349 149.787 22.6349C149.457 22.6349 149.178 22.7216 148.947 22.8949C148.717 23.0682 148.543 23.3111 148.423 23.6236C148.307 23.9361 148.249 24.304 148.249 24.7273ZM156.11 28.1321C155.695 28.1321 155.321 28.0582 154.989 27.9105C154.659 27.7599 154.398 27.5384 154.205 27.2457C154.015 26.9531 153.919 26.5923 153.919 26.1634C153.919 25.794 153.988 25.4886 154.124 25.2472C154.26 25.0057 154.446 24.8125 154.682 24.6676C154.918 24.5227 155.184 24.4134 155.479 24.3395C155.777 24.2628 156.086 24.2074 156.404 24.1733C156.787 24.1335 157.098 24.098 157.337 24.0668C157.576 24.0327 157.749 23.9815 157.857 23.9134C157.968 23.8423 158.023 23.733 158.023 23.5852V23.5597C158.023 23.2386 157.928 22.9901 157.738 22.8139C157.547 22.6378 157.273 22.5497 156.915 22.5497C156.537 22.5497 156.238 22.6321 156.016 22.7969C155.797 22.9616 155.65 23.1562 155.573 23.3807L154.132 23.1761C154.246 22.7784 154.434 22.446 154.695 22.179C154.956 21.9091 155.276 21.7074 155.654 21.5739C156.032 21.4375 156.449 21.3693 156.907 21.3693C157.222 21.3693 157.536 21.4062 157.848 21.4801C158.161 21.554 158.446 21.6761 158.705 21.8466C158.963 22.0142 159.171 22.2429 159.327 22.5327C159.486 22.8224 159.566 23.1847 159.566 23.6193V28H158.083V27.1009H158.032C157.938 27.2827 157.806 27.4531 157.635 27.6122C157.468 27.7685 157.256 27.8949 157 27.9915C156.748 28.0852 156.451 28.1321 156.11 28.1321ZM156.51 26.9986C156.82 26.9986 157.088 26.9375 157.316 26.8153C157.543 26.6903 157.718 26.5256 157.84 26.321C157.965 26.1165 158.027 25.8935 158.027 25.652V24.8807C157.979 24.9205 157.897 24.9574 157.78 24.9915C157.667 25.0256 157.539 25.0554 157.397 25.081C157.255 25.1065 157.114 25.1293 156.975 25.1491C156.836 25.169 156.715 25.1861 156.613 25.2003C156.382 25.2315 156.176 25.2827 155.995 25.3537C155.813 25.4247 155.669 25.5241 155.564 25.652C155.459 25.777 155.407 25.9389 155.407 26.1378C155.407 26.4219 155.51 26.6364 155.718 26.7812C155.925 26.9261 156.189 26.9986 156.51 26.9986ZM166.29 23.1847L164.884 23.3381C164.844 23.196 164.775 23.0625 164.675 22.9375C164.578 22.8125 164.448 22.7116 164.283 22.6349C164.118 22.5582 163.917 22.5199 163.678 22.5199C163.357 22.5199 163.087 22.5895 162.868 22.7287C162.652 22.8679 162.546 23.0483 162.549 23.2699C162.546 23.4602 162.615 23.6151 162.757 23.7344C162.902 23.8537 163.141 23.9517 163.473 24.0284L164.59 24.267C165.209 24.4006 165.669 24.6122 165.971 24.902C166.275 25.1918 166.428 25.571 166.431 26.0398C166.428 26.4517 166.307 26.8153 166.069 27.1307C165.833 27.4432 165.505 27.6875 165.084 27.8636C164.664 28.0398 164.181 28.1278 163.635 28.1278C162.834 28.1278 162.189 27.9602 161.701 27.625C161.212 27.2869 160.921 26.8168 160.827 26.2145L162.331 26.0696C162.4 26.3651 162.544 26.5881 162.766 26.7386C162.988 26.8892 163.276 26.9645 163.631 26.9645C163.998 26.9645 164.292 26.8892 164.513 26.7386C164.738 26.5881 164.85 26.402 164.85 26.1804C164.85 25.9929 164.777 25.8381 164.632 25.7159C164.49 25.5937 164.269 25.5 163.968 25.4347L162.851 25.2003C162.223 25.0696 161.759 24.8494 161.458 24.5398C161.157 24.2273 161.007 23.8324 161.01 23.3551C161.007 22.9517 161.117 22.6023 161.338 22.3068C161.563 22.0085 161.874 21.7784 162.272 21.6165C162.672 21.4517 163.134 21.3693 163.657 21.3693C164.424 21.3693 165.027 21.5327 165.468 21.8594C165.911 22.1861 166.185 22.6278 166.29 23.1847ZM170.6 28.1278C169.944 28.1278 169.377 27.9915 168.9 27.7188C168.426 27.4432 168.061 27.054 167.805 26.5511C167.549 26.0455 167.422 25.4503 167.422 24.7656C167.422 24.0923 167.549 23.5014 167.805 22.9929C168.064 22.4815 168.424 22.0838 168.887 21.7997C169.35 21.5128 169.895 21.3693 170.52 21.3693C170.923 21.3693 171.304 21.4347 171.662 21.5653C172.022 21.6932 172.341 21.892 172.616 22.1619C172.895 22.4318 173.113 22.7756 173.272 23.1932C173.431 23.608 173.511 24.1023 173.511 24.6761V25.1491H168.146V24.1094H172.032C172.029 23.8139 171.966 23.5511 171.841 23.321C171.716 23.0881 171.541 22.9048 171.316 22.7713C171.095 22.6378 170.836 22.571 170.541 22.571C170.225 22.571 169.949 22.6477 169.71 22.8011C169.471 22.9517 169.285 23.1506 169.152 23.3977C169.021 23.642 168.954 23.9105 168.951 24.2031V25.1108C168.951 25.4915 169.021 25.8182 169.16 26.0909C169.299 26.3608 169.494 26.5682 169.744 26.7131C169.994 26.8551 170.287 26.9261 170.622 26.9261C170.846 26.9261 171.049 26.8949 171.231 26.8324C171.413 26.767 171.571 26.6719 171.704 26.5469C171.838 26.4219 171.939 26.267 172.007 26.0824L173.447 26.2443C173.356 26.625 173.183 26.9574 172.927 27.2415C172.674 27.5227 172.35 27.7415 171.956 27.8977C171.561 28.0511 171.109 28.1278 170.6 28.1278Z" fill="black"/>
<line x1="71" y1="43" x2="220" y2="43" stroke="#393939" stroke-width="2"/>
<path d="M98.603 71.2144C98.603 70.6621 99.0507 70.2144 99.603 70.2144H195.569C196.122 70.2144 196.569 70.6621 196.569 71.2144V77.1371C196.569 77.6894 196.122 78.1371 195.569 78.1371H99.603C99.0507 78.1371 98.603 77.6894 98.603 77.1371V71.2144Z" fill="#F4F0CD"/>
<rect x="99" y="71" width="96.8708" height="60.9537" stroke="black" stroke-width="2"/>
<line x1="98" y1="77.9541" x2="196.871" y2="77.9541" stroke="black" stroke-width="2"/>
<line x1="98" y1="95.5518" x2="196.871" y2="95.5518" stroke="black" stroke-width="2"/>
<line x1="98" y1="113.753" x2="196.871" y2="113.753" stroke="black" stroke-width="2"/>
<line x1="98" y1="86.5586" x2="196.871" y2="86.5586" stroke="black" stroke-width="2"/>
<line x1="98" y1="104.545" x2="196.871" y2="104.545" stroke="black" stroke-width="2"/>
<line x1="98" y1="122.746" x2="196.871" y2="122.746" stroke="black" stroke-width="2"/>
<line x1="131.555" y1="70.2144" x2="131.555" y2="133" stroke="black" stroke-width="2"/>
<path d="M163.713 70.2144L163.713 133" stroke="black" stroke-width="2"/>
<defs>
<filter id="filter0_d_277_964" x="67" y="0" width="157" height="176" filterUnits="userSpaceOnUse" color-interpolation-filters="sRGB">
<feFlood flood-opacity="0" result="BackgroundImageFix"/>
<feColorMatrix in="SourceAlpha" type="matrix" values="0 0 0 0 0 0 0 0 0 0 0 0 0 0 0 0 0 0 127 0" result="hardAlpha"/>
<feOffset dy="4"/>
<feGaussianBlur stdDeviation="2"/>
<feComposite in2="hardAlpha" operator="out"/>
<feColorMatrix type="matrix" values="0 0 0 0 0 0 0 0 0 0 0 0 0 0 0 0 0 0 0.25 0"/>
<feBlend mode="normal" in2="BackgroundImageFix" result="effect1_dropShadow_277_964"/>
<feBlend mode="normal" in="SourceGraphic" in2="effect1_dropShadow_277_964" result="shape"/>
</filter>
</defs>
</svg>
